# Blender v2.79 (sub 0) OBJ File: 'BANANA.blend'
# www.blender.org
mtllib banana.mtl
o Cylinder
v 0.000000 -0.474271 -0.614283
v 0.000000 0.482953 -0.572470
v 0.476314 -0.522024 -0.343461
v 0.433013 0.526365 -0.326268
v 0.476314 -0.617531 0.198184
v 0.433013 0.613189 0.166136
v -0.000000 -0.665284 0.469006
v -0.000000 0.656601 0.412338
v -0.476314 -0.617531 0.198184
v -0.433013 0.613189 0.166136
v -0.476314 -0.522024 -0.343461
v -0.433013 0.526365 -0.326268
v 0.000000 1.446375 -0.768205
v 0.281458 1.501953 -0.615505
v 0.281458 1.613109 -0.310105
v 0.000000 1.668688 -0.157405
v -0.281458 1.613109 -0.310105
v -0.281458 1.501953 -0.615505
v 0.000000 2.355591 -1.193959
v 0.043301 2.364141 -1.170467
v 0.043301 2.381242 -1.123482
v 0.000000 2.389792 -1.099990
v -0.043301 2.381242 -1.123482
v -0.043301 2.364141 -1.170467
v 0.000000 -1.430936 -0.962200
v 0.367810 -1.503566 -0.762652
v 0.367810 -1.648825 -0.363555
v 0.000000 -1.721455 -0.164007
v -0.367810 -1.648825 -0.363555
v -0.367810 -1.503566 -0.762652
v 0.000000 -2.355591 -1.219476
v 0.043301 -2.364141 -1.195984
v 0.043301 -2.381242 -1.148999
v 0.000000 -2.389792 -1.125507
v -0.043301 -2.381242 -1.148999
v -0.043301 -2.364141 -1.195984
vn 0.4941 0.0362 -0.8687
vn 0.9993 0.0380 0.0003
vn 0.4938 0.0386 0.8687
vn -0.4938 0.0386 0.8687
vn -0.4845 0.4320 0.7607
vn -0.9993 0.0380 0.0003
vn -0.4941 0.0362 -0.8687
vn 0.4968 0.2952 -0.8161
vn -0.9728 0.2177 -0.0792
vn 0.9898 0.1385 -0.0344
vn -0.9898 0.1385 -0.0344
vn 0.4983 -0.1735 -0.8495
vn 0.4845 0.4320 0.7607
vn -0.4983 -0.1735 -0.8495
vn 0.0000 0.9397 -0.3420
vn 0.4375 0.7142 0.5464
vn 0.4985 -0.3676 -0.7851
vn -0.4985 -0.3676 -0.7851
vn -0.4375 0.7142 0.5464
vn 0.9728 0.2177 -0.0792
vn 0.4267 -0.7426 0.5162
vn 0.4822 -0.4539 0.7493
vn -0.4968 0.2952 -0.8161
vn -0.4822 -0.4539 0.7493
vn 0.9951 -0.0954 -0.0244
vn -0.9951 -0.0954 -0.0244
vn -0.0000 -0.9397 -0.3420
vn 0.4989 0.2323 -0.8350
vn -0.4989 0.2323 -0.8350
vn -0.4267 -0.7426 0.5162
vn 0.9470 -0.3018 -0.1098
vn -0.9470 -0.3018 -0.1098
usemtl None
s off
f 1//1 2//1 4//1 3//1
f 3//2 4//2 6//2 5//2
f 5//3 6//3 8//3 7//3
f 7//4 8//4 10//4 9//4
f 10//5 8//5 16//5 17//5
f 9//6 10//6 12//6 11//6
f 11//7 12//7 2//7 1//7
f 1//8 3//8 26//8 25//8
f 18//9 17//9 23//9 24//9
f 6//10 4//10 14//10 15//10
f 12//11 10//11 17//11 18//11
f 4//12 2//12 13//12 14//12
f 8//13 6//13 15//13 16//13
f 2//14 12//14 18//14 13//14
f 20//15 19//15 24//15 23//15 22//15 21//15
f 16//16 15//16 21//16 22//16
f 14//17 13//17 19//17 20//17
f 13//18 18//18 24//18 19//18
f 17//19 16//19 22//19 23//19
f 15//20 14//20 20//20 21//20
f 27//21 28//21 34//21 33//21
f 5//22 7//22 28//22 27//22
f 11//23 1//23 25//23 30//23
f 7//24 9//24 29//24 28//24
f 3//25 5//25 27//25 26//25
f 9//26 11//26 30//26 29//26
f 31//27 32//27 33//27 34//27 35//27 36//27
f 25//28 26//28 32//28 31//28
f 30//29 25//29 31//29 36//29
f 28//30 29//30 35//30 34//30
f 26//31 27//31 33//31 32//31
f 29//32 30//32 36//32 35//32
